<?xml version="1.0" encoding="UTF-8" standalone="no"?>
<!-- Created with Inkscape (http://www.inkscape.org/) -->

<svg
   width="103.97775mm"
   height="99.424469mm"
   viewBox="0 0 103.97775 99.424469"
   version="1.1"
   id="svg5"
   xmlns="http://www.w3.org/2000/svg"
   xmlns:svg="http://www.w3.org/2000/svg">
  <defs
     id="defs2" />
  <g
     id="layer1"
     transform="translate(-31.532149,-67.022372)">
    <path
       style="fill:#000000;stroke-width:0.264583"
       d="m 56.555301,143.92816 -16.255415,8.46636"
       id="path520" />
    <path
       style="fill:#000000;stroke-width:0.264583"
       id="path517"
       d="m 37.519311,136.28271 c 2.878058,-0.0479 5.742619,0.35658 8.600865,0.64277 3.673121,0.44434 7.360941,0.73773 11.056454,0.90397 2.558343,0.14967 5.117697,-0.0224 7.656451,-0.3365 1.727166,-0.27167 3.441801,-0.60059 5.153107,-0.9561 0.908423,-0.12656 1.766186,-0.45022 2.644156,-0.69629 0.476877,-0.14273 0.969073,-0.20855 1.464691,-0.23235 1.785702,0.0537 -3.941167,-1.03666 -3.072106,-1.91148 -0.116041,-0.0641 -0.217654,0.22914 -0.261808,0.32891 -0.05386,0.10721 -0.06437,0.22262 -0.0682,0.3406 -0.0013,0.28706 0.01,0.5742 0.01648,0.86119 0.146963,1.77347 0.851062,3.44261 1.410277,5.11569 0.607375,1.89488 1.252863,3.77839 2.020038,5.61499 0.268997,0.49539 0.363429,1.07828 0.63899,1.56875 3.439589,4.70764 3.644223,2.21703 3.995727,0.49886 0.40254,-1.54739 1.015384,-3.02705 1.574919,-4.52166 0.761177,-2.16735 1.493475,-4.34529 2.185877,-6.5356 0.49349,-1.36763 0.875231,-2.77645 1.507566,-4.08935 0.09129,-0.0734 0.306173,-1.01707 0.333127,-0.4929 -8.83896,-4.95544 0.248425,0.17978 0.305837,0.2114 0.07698,0.0424 0.178601,0.0206 0.256079,0.002 0.790126,0.19518 -4.7669,-3.05028 -2.887969,-1.52699 1.210321,0.69589 2.402348,1.42461 3.630964,2.08766 0.118931,0.0642 0.264713,0.0548 0.396264,0.0857 0.17676,0.0416 0.352245,0.0884 0.528558,0.1319 0.852887,0.2102 1.70702,0.41546 2.560537,0.62307 2.49219,0.63356 4.91417,1.48998 7.361105,2.27109 1.522146,0.45014 3.006225,1.01054 4.508493,1.51945 0.20652,0.20132 0.6144,0.0891 0.84031,0.21354 0.0359,0.0198 0.10455,0.12216 0.0688,0.10211 -1.10734,-0.62053 -2.196377,-1.27319 -3.294565,-1.90978 0.908519,1.14007 2.485515,2.01087 4.014665,2.32859 0.44912,0.0131 0.82962,0.42618 1.27912,0.3463 0.44304,-0.1862 0.41949,-0.76867 0.43493,-1.17359 0.002,-0.81726 -0.16544,-1.62317 -0.24878,-2.43485 -0.09,-1.04633 -0.0982,-2.09731 -0.10999,-3.14675 -0.004,-1.05194 -0.004,-2.1039 0.002,-3.15584 0.003,-0.75406 0.009,-1.50809 0.0139,-2.26213 0.006,-0.2997 -0.0388,-0.59448 0.11673,-0.86004 0.0766,-0.11039 0.2808,-0.058 0.41145,-0.0565 0.56377,-0.10973 1.14158,-0.26646 1.71428,-0.38067 1.63976,-0.22486 3.28452,-0.40306 4.93604,-0.5163 1.94131,-0.11209 3.8763,-0.2997 5.81908,-0.39418 1.51516,0.001 3.01894,-0.16379 4.52626,-0.292 0.94713,-0.0777 1.89732,-0.10038 2.84718,-0.10924 0.47955,-0.002 0.95908,0.003 1.43859,0.008 0.53133,0.0446 0.41032,-0.54729 0.24445,-0.86301 -0.47709,-0.78998 -0.93837,-1.58971 -1.40853,-2.38395 -0.90002,-1.39935 -1.81757,-2.78726 -2.71922,-4.1856 -0.6672,-1.01799 -1.21107,-2.10787 -1.81028,-3.16543 -0.0712,0.0124 -0.41995,-0.86687 -0.45176,-0.85384 -0.0375,0.0154 -0.0375,0.0719 -0.0562,0.10789 -0.0562,0.12805 0.0402,0.16949 0.15055,0.16786 0.29277,-0.0485 0.55455,-0.46415 0.70852,-0.70022 0.7634,-1.04779 1.55354,-2.07152 2.28251,-3.14485 1.26146,-1.90207 2.51864,-3.80724 3.72076,-5.74748 1.01343,-1.6889 2.05504,-3.363281 2.9718,-5.107522 0.61837,-1.167847 1.12843,-2.382833 1.622,-3.606618 0.27622,-0.675195 0.52222,-1.360321 0.66007,-2.07754 0.52003,-1.32837 -3.412,-3.359055 -3.48777,-1.868792 -0.005,0.225018 -0.005,0.450017 -0.002,0.675064 0.0257,0.641196 0.27067,1.260628 0.44351,1.87417 0.35158,1.414172 0.74542,2.816889 1.09127,4.232611 0.35628,1.331381 0.67831,2.671067 1.0076,4.009097 0.3014,1.23035 0.49279,2.48734 0.65522,3.74291 0.14622,1.72788 0.31965,3.45359 0.43484,5.18406 0.11516,1.87039 0.13509,3.74464 0.14203,5.61798 0.004,1.73287 0.006,3.46575 2.5e-4,5.19862 -0.0216,1.45752 0.027,2.91668 -0.0477,4.3728 -0.11558,1.68916 -0.21622,3.37723 -0.43089,5.05741 -0.15774,1.21203 -0.35805,2.41799 -0.51683,3.62981 -0.0113,0.0323 -0.0166,0.46388 -0.15736,0.45966 -0.0433,-0.001 -0.0787,-0.0394 -0.12144,-0.0463 -0.27287,-0.0372 -0.54972,-0.0316 -0.82459,-0.0383 -0.29831,-0.0253 -0.57135,-0.20541 -0.86256,-0.30948 -0.44945,-0.0901 -0.88594,-0.19734 -1.34801,-0.25557 -0.9911,-0.25695 -2.01009,-0.33452 -3.02877,-0.38243 -1.40088,-2e-5 -2.79136,-0.17019 -4.1868,-0.27112 -1.10664,-0.0868 -2.21488,-0.0499 -3.30892,-0.24988 -0.31219,0.006 -0.92244,-0.35735 -1.19753,-0.0545 -0.0651,0.0716 -0.0997,0.16588 -0.14957,0.24882 -0.19251,0.68578 -0.12401,1.42143 -0.11284,2.12633 0.0655,1.43061 -0.009,2.85475 -0.11924,4.28047 -0.0662,1.09605 -0.14076,2.18326 -0.33914,3.26371 -0.11753,0.66566 -0.32549,1.30752 -0.43853,1.97479 -0.12708,0.54974 -0.27209,1.09432 -0.38802,1.64666 -0.017,0.22563 -0.0944,0.42643 -0.26198,0.57992 -0.0558,-0.002 -0.0738,-0.0586 -0.2032,-0.0717 -0.11021,-0.014 -0.22206,-0.007 -0.33335,-0.008 -0.25018,0.001 -0.49153,0.0383 -0.7213,-0.0684 -0.92495,-0.29876 -1.86086,-0.56233 -2.79461,-0.8375 -1.44417,-0.37351 -2.90159,-0.69847 -4.37532,-0.93197 -0.89167,-0.11328 -1.75948,-0.34436 -2.65298,-0.45041 -0.79487,-0.10654 -1.57981,-0.25693 -2.38093,-0.32922 -0.67166,-0.0532 -1.34521,-0.0726 -2.018583,-0.0877 -0.413763,0.0108 -0.550098,-0.12256 -0.814049,0.23835 -0.117387,0.25503 -0.218202,0.52095 -0.30099,0.79096 -0.125743,0.6293 -0.231968,1.2629 -0.355968,1.89291 -0.302387,1.25354 -0.655775,2.4923 -1.046318,3.721 -0.321845,1.13022 -0.630431,2.26314 -0.985409,3.38358 -0.16814,0.75803 -0.510918,1.4479 -0.809305,2.15708 -0.172482,0.45732 -0.361444,0.91588 -0.576331,1.35517 -0.201091,0.45364 -0.500981,0.8507 -0.753131,1.27587 -0.164484,0.34637 -0.357458,0.69409 -0.629896,0.96712 -0.143984,0.16596 -0.219565,0.15926 -0.410652,0.15447 -0.283427,0.0201 -0.482957,-0.0962 -0.743223,-0.19706 -1.521616,-0.54735 -3.07231,-1.00858 -4.625385,-1.45697 -2.348711,-0.58134 -4.715367,-1.08221 -7.091706,-1.53581 -1.675252,-0.36703 -3.361624,-0.68611 -5.032547,-1.07207 -0.917096,-0.15614 -1.796031,-0.44838 -2.686709,-0.70638 -0.415285,-0.10338 -0.65533,-0.26183 -0.980665,0.0677 -0.234656,0.42249 -0.179586,0.93528 -0.180223,1.40317 0.0096,1.0842 -0.144153,2.16336 -0.297437,3.23439 -0.180316,0.98617 -0.157139,2.00874 -0.42118,2.97845 -0.08042,0.20117 -0.1823,0.59362 -0.25006,0.70476 -0.121187,0.01 -0.244935,0.26298 -0.310552,0.37571 -0.0067,0.0122 -0.0208,0.0504 -0.02003,0.0365 0.008,-0.14472 -0.01722,-0.10712 -0.156213,-0.1182 -0.08255,-0.0448 -0.238154,0.0386 -0.31288,-0.008 -0.0326,-0.0205 -0.03885,-0.0665 -0.05828,-0.0998 -0.04264,-0.0196 -0.08527,-0.0391 -0.127902,-0.0587 -1.35346,-0.94816 4.036674,2.14411 2.983275,1.69755 -1.323724,-0.56117 -2.503286,-1.41605 -3.777522,-2.08199 -0.576718,-0.3014 -1.408465,-0.35753 -2.031654,-0.49458 -2.27136,-0.48405 -4.570489,-0.8242 -6.850261,-1.26823 -1.986211,-0.26752 -3.856381,-0.97914 -5.728895,-1.65647 -1.739347,-0.65749 -3.411781,-1.47784 -5.103334,-2.24766 -1.010756,-0.50981 -0.284959,-0.12899 -1.212236,-0.6512 -0.167402,-0.0943 -0.671621,-0.37344 -0.504979,-0.27784 5.269355,3.02308 3.409493,1.99095 2.276682,1.24045 -0.657193,-0.42372 -1.220409,-0.9664 -1.781284,-1.50618 -0.923808,-0.86356 -1.7805,-1.79013 -2.615485,-2.73849 -0.772131,-0.81822 -1.428192,-1.72911 -2.082496,-2.64065 -0.574543,-0.8479 -1.053502,-1.75412 -1.596049,-2.62271 -0.619646,-1.04183 -1.26928,-2.06538 -1.861195,-3.12334 -0.490001,-0.7761 -0.871003,-1.61002 -1.260708,-2.43855 -0.343633,-0.74836 -0.673047,-1.50513 -0.95713,-2.27829 -0.292973,-0.68329 -0.499015,-1.38601 -0.60574,-2.12062 -0.122774,-0.71089 -0.261707,-1.41822 -0.345495,-2.13514 -0.02969,-0.27059 -0.03933,-0.54268 -0.05091,-0.81444 0,0 -3.536511,-1.78517 -3.536511,-1.78517 v 0 c 0.0093,0.28107 0.02357,0.56174 0.04517,0.8422 0.0709,0.72206 0.211754,1.43379 0.353878,2.1448 0.07322,0.76201 0.245541,1.5015 0.570701,2.19902 0.26481,0.79127 0.61468,1.55071 0.938164,2.31924 0.414716,0.82853 0.755719,1.69701 1.274771,2.47031 0.595196,1.06028 1.239057,2.08816 1.851705,3.13891 0.542126,0.87309 1.047279,1.76434 1.576083,2.64459 0.672145,0.91333 1.301991,1.86117 2.089314,2.68346 0.833321,0.94523 1.662562,1.89245 2.58169,2.75688 0.555691,0.54723 1.096857,1.12049 1.74235,1.56418 1.936713,1.35703 4.033118,2.48945 6.149555,3.54014 1.691211,0.75434 3.352313,1.58385 5.098875,2.20611 1.875062,0.6737 3.756922,1.33566 5.744596,1.59206 2.295684,0.42625 4.60665,0.78209 6.8819,1.30997 0.492694,0.11681 1.031663,0.23365 1.517219,0.38765 0.178466,0.0566 0.684868,0.29514 0.526848,0.19473 -6.181875,-3.92835 -1.606147,-0.58668 0.821309,0.41501 0.197369,0.0774 0.413216,0.0345 0.624504,0.0255 0.173392,-0.0347 0.295884,-0.0854 0.390256,-0.25271 0.06226,-0.12142 0.140147,-0.20721 0.251761,-0.28624 0.191728,-0.2612 0.205314,-0.59946 0.324218,-0.8992 0.249846,-0.99619 0.21467,-2.03231 0.393483,-3.0423 0.161309,-1.08021 0.331356,-2.1665 0.372322,-3.25823 0.0021,-0.35577 0.0069,-0.71522 0.02598,-1.06867 0.199988,0.14312 0.520644,0.0986 0.74514,0.21419 0.877742,0.24823 1.756074,0.48727 2.654554,0.65192 1.659586,0.35356 3.323291,0.68817 4.986809,1.02285 2.371436,0.45191 4.735324,0.94791 7.069756,1.56596 1.58414,0.47341 3.162994,0.96594 4.712166,1.5454 0.290015,0.0871 0.583036,0.13899 0.883108,0.0646 0.226562,-0.0659 0.391337,-0.21107 0.546298,-0.38544 0.273725,-0.31089 0.495125,-0.67166 0.664271,-1.04934 0.250179,-0.43718 0.565552,-0.83498 0.770861,-1.29746 0.221242,-0.44563 0.403627,-0.91979 0.576352,-1.3858 0.292264,-0.72534 0.642152,-1.42845 0.801934,-2.20161 0.342334,-1.12559 0.652349,-2.25887 0.959731,-3.39435 0.395209,-1.23739 0.751409,-2.48608 1.094139,-3.73884 0.14043,-0.61235 0.265,-1.22895 0.37932,-1.84582 0.0624,-0.22126 0.16006,-0.43875 0.23413,-0.64288 0.0497,0.12534 0.47572,0.009 0.60062,0.0465 0.65805,0.006 1.31639,0.0303 1.9715,0.0953 0.79831,0.0909 1.58372,0.25749 2.38233,0.34488 0.87484,0.12764 1.73565,0.3358 2.61487,0.43599 1.45849,0.24024 2.90384,0.5629 4.32805,0.95845 0.96137,0.28575 1.91216,0.60978 2.88085,0.86786 0.26177,0.01 0.52353,0.009 0.78537,0.0155 0.1125,0.001 0.22474,0.0115 0.33681,0.004 0.1626,-0.0149 0.28826,-0.0665 0.38604,-0.20602 0.18116,-0.22482 0.33768,-0.48653 0.35407,-0.7808 0.0913,-0.56251 0.22798,-1.11453 0.37489,-1.66494 0.10088,-0.66968 0.31233,-1.30905 0.4274,-1.97447 0.18254,-1.10142 0.26371,-2.20578 0.31138,-3.32127 0.10604,-1.43013 0.20209,-2.85829 0.16103,-4.29364 0.006,-0.63697 -0.0111,-1.2788 0.0622,-1.91238 0.32432,0.0356 0.70955,0.14463 1.05445,0.1765 1.09248,0.13729 2.19576,0.10199 3.29213,0.19909 1.39855,0.10769 2.79447,0.24768 4.19803,0.27239 1.02444,0.075 2.0379,0.20675 3.0403,0.43627 0.44895,0.0818 0.89788,0.19101 1.32857,0.33882 0.30934,0.11481 0.59396,0.24235 0.93548,0.20185 0.29332,0.006 0.59795,0.044 0.88476,-0.0286 0.35053,-0.15286 0.50683,-0.4843 0.5093,-0.85902 0.10199,-1.22588 0.26744,-2.44555 0.43213,-3.66426 0.22207,-1.68222 0.34692,-3.37231 0.4773,-5.06358 0.0997,-1.46512 0.0135,-2.93631 0.0372,-4.40401 -0.003,-1.73504 0.004,-3.47009 -0.007,-5.20512 -0.0181,-1.88047 -0.029,-3.76213 -0.13513,-5.6402 -0.11397,-1.73185 -0.27592,-3.45949 -0.4019,-5.19023 -0.13734,-1.26869 -0.32336,-2.53746 -0.61337,-3.7805 -0.3586,-1.3347 -0.6545,-2.68669 -1.0337,-4.016569 -0.34618,-1.40975 -0.72915,-2.810264 -1.05413,-4.224763 -0.14928,-0.581354 -0.33531,-1.169446 -0.43614,-1.754984 0.003,-0.220745 7.9e-4,-0.441466 0.003,-0.662205 0.006,-1.466762 -3.548,-3.457308 -3.56297,-1.808691 -0.0952,0.70033 -0.31676,1.370287 -0.57428,2.027041 -0.48103,1.216406 -0.96909,2.428634 -1.571,3.592301 -0.88571,1.749867 -1.91605,3.419668 -2.91107,5.10839 -1.19309,1.93948 -2.4535,3.83502 -3.74365,5.71117 -0.74931,1.06621 -1.55799,2.08038 -2.37257,3.09644 -0.0772,0.10901 -0.25197,0.39965 -0.42438,0.40245 -0.033,5.2e-4 0.039,-0.15907 -0.0822,-0.055 -0.18423,-0.019 -0.31864,0.0978 -0.41906,0.24544 -0.0308,0.0661 -0.0786,0.12663 -0.0923,0.19822 -0.0288,0.15075 0.49345,0.73105 0.49127,0.89065 0.61266,1.07279 1.20599,2.15739 1.85555,3.20918 0.89636,1.39007 1.80489,2.77225 2.70401,4.16059 0.45544,0.78664 0.91003,1.57396 1.34578,2.37137 0.0721,0.0926 0.11783,0.2246 0.2261,0.26992 0.0615,0.0258 0.32622,-0.23515 -0.0589,-0.14781 -0.47161,0.003 -0.94323,0.007 -1.41473,0.018 -0.94811,0.021 -1.89585,0.0628 -2.84039,0.15066 -1.49044,0.1463 -2.97937,0.29497 -4.47881,0.30749 -1.93851,0.11019 -3.87071,0.2985 -5.80907,0.40913 -1.68098,0.11723 -3.35994,0.27858 -5.0289,0.51119 -0.57561,0.11401 -1.15009,0.26651 -1.73522,0.31048 -0.25494,0.0418 -0.48962,0.14626 -0.62042,0.38351 -0.1901,0.34525 -0.23405,0.6579 -0.19023,1.05231 0.004,0.75823 0.01,1.51646 0.0112,2.27471 0.004,1.05448 5.3e-4,2.10897 0.006,3.16344 0.004,1.05728 0.0155,2.11511 0.084,3.17056 0.0644,0.79503 0.22006,1.58235 0.24379,2.37678 -0.005,0.18313 0.034,0.49617 -0.0407,0.67194 -0.0117,0.0275 0.017,-0.22068 -0.0731,-0.0519 -0.38083,-0.19569 -0.808678,-0.28723 -1.21498,-0.41305 -1.335741,-0.58981 -0.290322,-0.13634 3.07114,1.79998 0.0336,0.0194 -0.0597,-0.0593 -0.0984,-0.0621 -0.0342,-0.002 -0.0571,0.0549 -0.0907,0.0483 -0.0596,-0.0117 0.013,-0.17867 -0.0827,-0.16225 -3.669228,-2.21232 -2.340729,-1.72233 -4.399796,-2.34367 -1.469302,-0.4852 -2.930144,-0.9951 -4.413028,-1.43888 -2.458241,-0.78828 -4.9004,-1.62633 -7.402573,-2.27084 -0.872021,-0.22029 -1.746578,-0.43382 -2.61348,-0.67385 -1.462418,-0.40493 -3.431273,-1.59378 2.249371,1.54308 -1.258559,-0.80375 -2.289339,-2.21233 -4.020759,-2.30228 -2.322422,-1.34632 10.775847,6.28316 -0.525566,-0.2634 -0.379637,0.21251 -0.452821,0.58555 -0.594905,0.97135 -0.570126,1.36277 -0.938328,2.793 -1.425596,4.18596 -0.694944,2.18096 -1.408583,4.35704 -2.191112,6.50834 -0.578337,1.50141 -1.221039,2.98028 -1.6784,4.52519 -0.549011,2.13618 -0.08548,1.05499 3.242,2.88419 0.02593,0.0143 -0.05879,-0.007 -0.08818,-0.01 -0.453816,-0.17036 -0.515427,-1.0803 -0.777055,-1.45034 -0.837694,-1.81964 -1.51734,-3.70688 -2.114896,-5.61815 -0.524018,-1.62048 -1.191948,-3.2341 -1.339649,-4.94407 0.0059,-0.28036 0.01614,-0.56084 0.01336,-0.84125 -0.0011,-0.0752 -0.02183,-0.1387 -2.64e-4,-0.20961 0.04803,-0.1435 0.09667,-0.11269 0.211216,-0.24663 0.890244,-1.44908 -2.102783,-2.65366 -3.598793,-2.42693 -0.50282,0.0603 -0.999204,0.16049 -1.481484,0.31781 -0.859639,0.26291 -1.715966,0.53518 -2.603995,0.69082 -1.676294,0.38651 -3.36428,0.71116 -5.065001,0.97295 -2.510245,0.29749 -5.038174,0.4614 -7.566493,0.32446 -3.674872,-0.15625 -7.34215,-0.43589 -10.993773,-0.88505 -2.933711,-0.31058 -5.866982,-0.71121 -8.82083,-0.75562 0,0 3.192015,2.31913 3.192015,2.31913 z" />
    <path
       style="fill:#000000;stroke-width:0.264583"
       id="path514"
       d="m 34.733949,135.94761 c 0.740085,-0.0107 1.480339,-0.007 2.220434,0.001 0.35936,5.3e-4 0.718722,0.006 1.078079,0.005 0.27187,0.003 0.543703,-0.001 0.815581,2.7e-4 0.258267,1.3e-4 0.516546,-8e-4 0.774808,0.001 0.02832,2.6e-4 0.05664,5.3e-4 0.08496,0.001 0,0 -3.225946,-2.34379 -3.225946,-2.34379 v 0 c -0.02743,2.6e-4 -0.05485,5.3e-4 -0.08228,0.001 -0.257016,0.002 -0.514051,0.001 -0.771073,0.001 -0.271605,0.002 -0.543168,-0.002 -0.814768,2.7e-4 -0.354613,-8e-4 -0.709234,0.005 -1.063853,0.005 -0.739198,0.009 -1.478552,0.0114 -2.217742,0.001 0,0 3.201799,2.32625 3.201799,2.32625 z" />
    <path
       style="fill:#000000;stroke-width:0.264583"
       id="path511"
       d="m 45.308363,91.580318 c 4.028996,-0.10028 8.059926,-0.09815 12.089935,-0.106378 4.427473,-0.0024 8.854963,0.01445 13.282231,0.05742 0.91617,0.0087 1.832316,0.02045 2.748375,0.03715 0.346813,0.0063 0.573233,-0.0021 0.870228,0.166976 -1.110964,-0.626216 -2.221926,-1.252434 -3.33289,-1.87865 0.122026,-0.0058 0.181649,-0.06914 0.189796,-0.224121 0.0039,-0.0733 -0.09769,0.109598 -0.147563,0.163452 -0.157232,0.172114 -0.327584,0.32743 -0.44671,0.52833 -0.251978,0.398682 -0.449074,0.823987 -0.590026,1.273432 -0.451707,1.75029 -0.812395,3.521927 -1.235824,5.278998 -0.591068,2.60009 -1.4654,5.117233 -2.810163,7.422543 -0.907603,1.39488 -2.162365,2.45595 -3.669096,3.14182 -1.444289,0.54108 -2.204275,0.49534 -3.645956,0.0114 -2.23439,-0.78502 -4.37117,-1.80726 -6.581052,-2.65723 -0.958414,-0.37631 -1.908882,-0.77683 -2.847322,-1.20078 -0.227012,-0.10256 -0.888934,-0.44831 -0.674999,-0.3207 3.564466,2.12621 3.511724,2.11807 2.278663,1.2064 -0.736812,-0.63079 -1.318043,-1.43232 -1.699279,-2.32248 -0.27737,-0.89164 -0.485497,-1.80497 -0.664951,-2.720942 -0.174659,-0.953008 -0.231841,-1.921079 -0.261056,-2.887758 0.03257,-0.667364 -0.06539,-1.318882 -0.189278,-1.971265 -0.06105,-0.292245 -0.11213,-0.586565 -0.131826,-0.884682 -0.01127,-0.221049 -0.01135,-0.442431 -0.01034,-0.66371 -0.0011,-0.218263 -2.64e-4,-0.436541 7.94e-4,-0.654804 0,0 -3.546859,-1.807834 -3.546859,-1.807834 v 0 c 5.29e-4,0.217781 2.65e-4,0.435594 -0.0021,0.653362 -5.3e-4,0.227957 -0.0051,0.456059 0.0016,0.683929 0.01249,0.318336 0.0407,0.637133 0.12188,0.946513 0.14051,0.635161 0.285708,1.264507 0.240784,1.921129 0.03176,0.987877 0.09638,1.975469 0.252934,2.952474 0.172061,0.932075 0.378508,1.856672 0.612071,2.775028 0.336815,0.9578 0.930786,1.81391 1.650709,2.52511 2.246479,1.95968 5.137259,3.01891 7.864803,4.12193 2.228506,0.87035 4.385265,1.91662 6.654927,2.67912 1.503117,0.41703 2.387195,0.38197 3.829918,-0.23673 1.532684,-0.78159 2.823456,-1.89996 3.734448,-3.3747 1.321099,-2.35761 2.207575,-4.90228 2.831198,-7.530146 0.452337,-1.729131 0.844452,-3.474444 1.360969,-5.186349 0.129209,-0.418952 0.325694,-0.810747 0.56851,-1.175951 0.106979,-0.171569 0.2769,-0.293936 0.40449,-0.449924 1.364676,-1.360696 -2.441078,-2.19806 -3.249703,-2.572819 -1.167283,-0.150156 -2.366785,0.101894 -3.537381,0.01127 -4.374568,0.04363 -8.749371,0.05976 -13.124151,0.05743 -4.12764,-0.0084 -8.256079,-0.0083 -12.382772,-0.106379 0,0 3.192015,2.319134 3.192015,2.319134 z" />
    <path
       style="fill:#000000;stroke-width:0.264583"
       id="path508"
       d="m 83.590756,88.302742 c 0.198358,-0.316318 0.383548,-0.641282 0.595072,-0.948947 0.365159,-0.531132 1.746951,-2.358414 2.075436,-2.796667 1.5229,-2.031778 3.024056,-4.079343 4.543812,-6.113499 2.124506,-2.838231 4.44555,-5.520997 6.754018,-8.209362 0.32284,-0.321644 0.756616,-1.121127 1.350063,-0.961435 0.349708,0.0941 1.117133,0.607687 1.346533,0.749027 -0.727138,-0.360346 -1.375775,-1.178618 -2.181418,-1.081037 -0.576265,0.0698 0.858034,0.782553 1.270082,1.191419 1.556786,1.544764 2.906136,3.199918 4.131216,5.014015 0.94037,1.535999 1.74329,3.170751 1.98041,4.969513 0.0417,1.086768 -0.26454,1.723863 -1.1,2.372929 -1.11137,0.541509 -2.34636,0.774438 -3.52278,1.147667 -1.897828,0.757491 -3.889966,1.100995 -5.894272,1.427374 -1.80835,0.288626 -3.635798,0.410803 -5.464241,0.467638 -1.173184,0.02807 -2.346846,0.02289 -3.520255,0.01749 -0.906327,-0.0042 -1.812663,-0.0074 -2.718996,-0.01066 -0.490831,-0.0019 -0.981675,-0.0037 -1.472477,-0.0097 0,0 3.212168,2.333887 3.212168,2.333887 v 0 c 0.48251,-0.0058 0.965068,-0.0071 1.44761,-0.0079 0.9017,-0.0011 1.803392,-1.33e-4 2.705089,7.93e-4 1.16771,-0.0013 2.335734,-0.0021 3.502697,-0.05009 1.82466,-0.08774 3.646467,-0.236379 5.450224,-0.535805 2.024353,-0.333084 4.026043,-0.72526 5.954273,-1.449457 1.229,-0.364744 2.54477,-0.567885 3.65287,-1.239808 0.86109,-0.714983 1.29845,-1.58772 1.26195,-2.734344 -0.18747,-1.880275 -1.03663,-3.57945 -2.002,-5.182203 -0.66154,-0.98551 -0.99314,-1.525167 -1.75716,-2.464147 -0.59173,-0.727239 -1.74379,-1.972583 -2.38653,-2.640129 -0.39487,-0.410101 -0.74112,-0.880081 -1.20447,-1.21086 -1.39492,-0.995831 -2.896181,-1.833584 -4.344272,-2.750376 -0.569105,-0.291867 -0.931135,-0.586107 -1.581171,-0.575413 -0.66738,0.01098 -1.073505,0.797523 -1.43365,1.224158 -2.160762,2.797966 -4.393991,5.539164 -6.514769,8.36798 -2.482228,3.250472 -4.998067,6.474732 -7.517982,9.695291 0,0 3.38292,1.99263 3.38292,1.99263 z" />
    <path
       style="fill:#ff0000;stroke-width:1.27995"
       d="m 258.55071,617.99855 c -1.75993,-0.67745 -12.35186,-2.95655 -23.53761,-5.06466 -19.01314,-3.58328 -31.76614,-7.41572 -45.60322,-13.70435 -16.10104,-7.31754 -45.54859,-48.67723 -51.83127,-72.79809 -3.07641,-11.81112 -2.98749,-12.01886 4.81628,-11.25171 3.69586,0.36333 18.81532,1.86596 33.59879,3.33917 34.51926,3.43994 62.25952,3.51304 78.84765,0.20778 l 12.29004,-2.44885 3.56334,10.97142 c 6.67618,20.55573 10.97689,30.44537 15.57666,35.81917 7.86707,9.19092 8.13724,8.82827 20.38799,-27.36739 5.94918,-17.57722 11.35757,-32.49946 12.01867,-33.16056 0.74935,-0.74935 1.82492,-0.70986 2.85618,0.10483 0.9098,0.71876 5.97403,2.34673 11.25384,3.61771 8.81229,2.12135 35.39475,10.70157 52.47811,16.93878 4.33921,1.58427 7.52278,2.11811 8.29891,1.39161 0.76783,-0.71873 1.0939,-10.35571 0.83565,-24.69803 l -0.4235,-23.5194 6.84407,-1.34876 c 7.97016,-1.57065 32.41742,-3.5839 58.36222,-4.80615 15.24305,-0.71809 18.23934,-1.18483 18.23934,-2.84117 0,-1.09005 -4.53748,-9.21196 -10.08331,-18.04869 -5.54582,-8.83672 -10.72805,-17.32189 -11.51605,-18.85592 -1.26366,-2.45998 -0.0323,-4.87685 10.434,-20.47926 6.52672,-9.72957 14.44484,-22.1469 17.59584,-27.59407 3.151,-5.44717 6.05576,-9.911 6.45503,-9.91964 1.25112,-0.0271 5.09039,18.21521 6.34612,30.15373 1.68083,15.9799 1.37123,80.81574 -0.44879,93.98611 -1.72532,12.48516 0.1531,11.57528 -18.78284,9.09816 -21.19789,-2.77302 -38.97639,-3.76117 -39.97896,-2.22206 -0.51721,0.79398 -0.94801,7.49139 -0.95736,14.88312 -0.0187,14.78899 -3.27988,35.69565 -5.71376,36.62961 -0.85233,0.32708 -6.97615,-0.81304 -13.6085,-2.53358 -14.79007,-3.83679 -37.86836,-7.54083 -43.53262,-6.98696 -4.0834,0.39931 -4.25294,0.65913 -6.53161,10.0096 -5.3206,21.83305 -11.99341,40.36055 -17.43767,48.41683 -0.93041,1.3768 -3.18268,1.06928 -11.89096,-1.62363 -5.90874,-1.82719 -22.83872,-5.95446 -37.62219,-9.17173 -14.78347,-3.21727 -28.14844,-6.14857 -29.69993,-6.51401 -3.31994,-0.78198 -3.44401,-0.35338 -5.18355,17.90625 -0.6568,6.89427 -1.7164,13.02587 -2.35466,13.62578 -0.64127,0.60274 -2.59215,0.53965 -4.36037,-0.14099 z"
       id="path505"
       transform="scale(0.26458333)" />
    <path
       style="fill:#ff0000;stroke-width:1.27995"
       d="m 219.51212,404.52489 c -3.51988,-1.2724 -11.58359,-4.54219 -17.91936,-7.26621 -10.69959,-4.60022 -11.72759,-5.37172 -14.44166,-10.8383 -2.19066,-4.41236 -3.27292,-9.8588 -4.32376,-21.75922 -0.7745,-8.77099 -2.04424,-16.29445 -2.83772,-16.81405 -0.78982,-0.5172 17.75409,-0.94919 41.20869,-0.95997 40.01644,-0.0184 42.6042,0.11845 41.9871,2.22032 -0.3617,1.23196 -2.11118,8.22281 -3.88773,15.53523 -5.45958,22.47201 -12.50474,34.67136 -22.94017,39.72306 -6.55002,3.17082 -8.46407,3.1889 -16.84539,0.15914 z"
       id="path502"
       transform="scale(0.26458333)" />
    <path
       style="fill:#ff0000;stroke-width:1.27995"
       d="m 326.02194,320.94847 c 0.67489,-0.87997 7.31911,-9.66365 14.76494,-19.5193 17.27557,-22.86674 30.28773,-38.0064 32.14502,-37.40076 2.73237,0.89098 16.41977,18.18722 20.03722,25.32025 8.52782,16.8155 6.43518,20.77355 -14.10273,26.67416 -15.62131,4.48807 -29.28722,6.5256 -43.76777,6.5256 -8.04413,0 -10.03465,-0.35087 -9.07668,-1.59995 z"
       id="path499"
       transform="scale(0.26458333)" />
  </g>
</svg>
